:SAMPLES-PER-SECOND 30
:FULLY-SPECIFIED
:DEGREES
1019
root  66.1266 38.4632 26.7549 174.023 1.18144 179.949
RightUpLeg  -5.21308 -7.62459 -4.39207
RightLeg  16.5576 6.24147 1.55452
RightFoot  -11.5879 -0.0587474 9.08876
RightToes  1.33877e-009 0 -3.6325e-017
Spine  8.06673 -0.684381 8.22334
Spine1  7.12187 0.462955 -0.939271
HEad  -5.36154 -10.1559 -2.36306
LeftShoulder1  -0.223487 4.05436 -34.4683
LeftArm  -3.13392 14.6222 -38.3076
LeftForeArm  15.2533 -3.07839 -9.17081
LeftHand  0.346418 8.46884 13.1755
RightShoulder  -0.683536 -5.45523 28.337
RightArm  7.7112 -8.45826 34.5776
RightForeArm  -11.3252 -5.33129 4.68277
RightHand  -0.579036 7.55721 -5.4835
LeftUpLeg  3.28259 5.39276 8.74334
LeftLeg  32.4737 1.36816 1.35341
LeftFoot  -10.3157 0.0705622 -4.03179
LeftToes  -1.45701e-009 4.75788e-011 -4.21586e-011
1020
root  65.9365 38.3806 27.4387 173.95 0.356776 -179.18
RightUpLeg  -6.19216 -7.16189 -3.66341
RightLeg  16.5071 4.94884 1.22055
RightFoot  -10.0185 -0.172127 8.85487
RightToes  1.33877e-009 0 -3.6325e-017
Spine  7.13692 -1.10247 6.91367
Spine1  7.29535 -0.589327 0.836943
HEad  -4.32188 -8.8637 -1.78625
LeftShoulder1  -0.192295 3.9695 -34.7616
LeftArm  -2.3343 7.32145 -38.9411
LeftForeArm  14.8818 -3.14987 -9.81823
LeftHand  0.451537 10.1062 12.3573
RightShoulder  -0.648809 -5.37799 27.9149
RightArm  4.9821 -1.45948 36.3631
RightForeArm  -5.62401 -6.50786 3.93661
RightHand  -0.269615 4.85663 -3.3708
LeftUpLeg  7.91873 6.2197 10.5183
LeftLeg  26.5132 -2.41634 -1.02983
LeftFoot  -14.3422 -0.140946 -9.1327
LeftToes  -1.45701e-009 4.75788e-011 -4.21586e-011
1021
root  65.7356 38.4277 28.1488 174.032 -1.33251 -179.116
RightUpLeg  -6.63039 -7.65395 -4.11861
RightLeg  15.2584 4.07548 0.999605
RightFoot  -8.03418 -0.312196 8.99997
RightToes  1.33877e-009 0 -3.6325e-017
Spine  6.34319 -1.42777 4.40721
Spine1  7.28415 -1.62839 2.16235
HEad  -3.40462 -7.55107 -0.726291
LeftShoulder1  0.0565037 3.36135 -32.9205
LeftArm  -3.15499 0.371873 -41.7415
LeftForeArm  15.7338 -3.86584 -9.44079
LeftHand  0.314351 10.7113 7.31474
RightShoulder  -0.680483 -5.46666 27.9846
RightArm  1.07517 5.66759 38.6716
RightForeArm  -2.72495 -6.26483 2.96245
RightHand  -0.19744 5.93243 -2.39141
LeftUpLeg  11.2447 5.19693 9.90157
LeftLeg  18.9626 -3.25937 -0.798892
LeftFoot  -16.9921 -0.305991 -8.31463
LeftToes  -1.45701e-009 4.75788e-011 -4.21586e-011
1022
root  65.5175 38.5258 28.9308 174.482 -2.99501 -179.519
RightUpLeg  -7.35663 -8.16123 -4.95264
RightLeg  13.5772 2.99866 0.654094
RightFoot  -5.74765 -0.470874 8.76696
RightToes  1.33877e-009 0 -3.6325e-017
Spine  5.77009 -1.66253 1.2204
Spine1  7.25588 -2.62793 3.53875
HEad  -3.15869 -7.34774 -0.0306266
LeftShoulder1  0.122775 3.18061 -31.9341
LeftArm  -3.92884 -6.76677 -44.1941
LeftForeArm  16.812 -5.35888 -8.94182
LeftHand  0.0429986 7.05726 5.66695
RightShoulder  -0.613403 -5.28654 27.6888
RightArm  -3.12584 11.6353 41.4381
RightForeArm  -0.464377 -6.03868 1.46684
RightHand  -0.304285 10.0387 -2.67343
LeftUpLeg  12.1342 7.61597 9.30736
LeftLeg  13.1975 -4.8227 -0.311165
LeftFoot  -17.2773 -0.136843 -4.57247
LeftToes  -1.45701e-009 4.75788e-011 -4.21586e-011
1023
root  65.1976 38.5874 29.8009 174.987 -5.04865 179.158
RightUpLeg  -8.10965 -10.2248 -7.17226
RightLeg  12.1108 3.18961 0.810515
RightFoot  -4.54498 -0.623822 9.9694
RightToes  1.33877e-009 0 -3.6325e-017
Spine  6.00725 -2.06901 -1.63239
Spine1  6.95934 -3.32304 3.62584
HEad  -3.43676 -8.29181 0.865321
LeftShoulder1  0.194869 2.98608 -31.4474
LeftArm  -3.6719 -13.3338 -46.0441
LeftForeArm  14.3574 -8.27065 -8.62832
LeftHand  0.0451529 6.62148 6.74131
RightShoulder  -0.482042 -4.92407 26.9901
RightArm  -0.703493 16.5065 43.9338
RightForeArm  -3.14491 -6.24089 2.53979
RightHand  -0.324673 10.4969 -2.77896
LeftUpLeg  10.5839 8.30606 6.9405
LeftLeg  11.8046 -5.7242 -0.0103576
LeftFoot  -16.4307 0.0144263 -1.9222
LeftToes  -1.45701e-009 4.75788e-011 -4.21586e-011
1024
root  64.9348 38.6969 30.6804 175.365 -5.97564 177.701
RightUpLeg  -8.62457 -10.8789 -9.08374
RightLeg  10.1936 2.7176 0.54283
RightFoot  -3.99752 -0.697931 10.4268
RightToes  1.33877e-009 0 -3.6325e-017
Spine  6.27065 -1.92442 -3.89886
Spine1  7.41577 -3.19156 3.24047
HEad  -4.24624 -9.45279 1.82237
LeftShoulder1  0.150933 3.08993 -30.9393
LeftArm  -1.51631 -20.6685 -48.0078
LeftForeArm  11.2647 -10.3464 -8.60076
LeftHand  0.0569666 6.55127 8.30594
RightShoulder  -0.310603 -4.43312 26.2473
RightArm  -2.79906 19.4616 47.6076
RightForeArm  0.184917 -5.61662 1.22578
RightHand  -0.296947 10.5156 -2.57291
LeftUpLeg  8.71545 7.46145 4.13835
LeftLeg  11.6382 -5.32775 0.295728
LeftFoot  -14.8275 0.039908 -1.59115
LeftToes  -1.45701e-009 4.75788e-011 -4.21586e-011
1025
root  64.7428 38.79 31.5131 176.57 -5.22611 176.732
RightUpLeg  -10.2873 -10.498 -9.80051
RightLeg  8.31467 2.62614 0.187941
RightFoot  -4.68356 -0.652942 10.6492
RightToes  1.33877e-009 0 -3.6325e-017
Spine  5.1502 -0.962837 -3.98314
Spine1  8.43741 -1.51394 0.917913
HEad  -4.78802 -11.4479 3.142
LeftShoulder1  0.411781 2.33322 -28.9477
LeftArm  1.08172 -26.6718 -50.7336
LeftForeArm  9.09342 -12.594 -8.05409
LeftHand  -0.0319968 5.23149 8.51236
RightShoulder  -0.371733 -4.59716 26.6622
RightArm  -1.66512 22.0287 50.6008
RightForeArm  -0.3523 -3.26885 1.68042
RightHand  -0.509761 10.6584 -4.059
LeftUpLeg  6.19673 7.49649 2.60484
LeftLeg  11.7346 -4.68092 -0.419343
LeftFoot  -13.5412 0.0670537 -0.750915
LeftToes  -1.45701e-009 4.75788e-011 -4.21586e-011
1026
root  64.3823 38.8453 32.3324 177.227 -5.26731 176.167
RightUpLeg  -10.9216 -11.0743 -10.6238
RightLeg  6.15159 2.34606 -0.0380288
RightFoot  -6.17555 -0.54123 11.0554
RightToes  1.33877e-009 0 -3.6325e-017
Spine  5.4845 -0.725713 -2.49141
Spine1  7.73576 -0.469545 -1.87795
HEad  -4.52089 -12.6172 3.11348
LeftShoulder1  0.555082 1.90783 -28.6658
LeftArm  5.63584 -31.3126 -52.1784
LeftForeArm  5.28336 -15.5846 -7.29836
LeftHand  -0.0320629 5.25502 7.63129
RightShoulder  -0.101391 -3.81557 24.1927
RightArm  2.16238 22.1798 54.2926
RightForeArm  -2.95028 1.87029 3.29903
RightHand  -0.592173 9.61653 -5.16837
LeftUpLeg  3.97519 6.46942 0.699036
LeftLeg  12.0876 -3.20479 -0.1628
LeftFoot  -12.6917 0.074038 -0.202128
LeftToes  -1.45701e-009 4.75788e-011 -4.21586e-011
1027
root  64.1088 38.8557 33.1119 177.155 -4.52162 176.418
RightUpLeg  -11.1601 -10.4351 -10.3747
RightLeg  4.37128 3.17324 -0.378215
RightFoot  -7.64259 -0.416994 11.2009
RightToes  1.33877e-009 0 -3.6325e-017
Spine  6.8792 -0.292173 -0.584383
Spine1  6.60212 0.654304 -4.51429
HEad  -3.75493 -11.6379 1.83569
LeftShoulder1  0.566351 1.83618 -27.7987
LeftArm  9.93648 -34.1864 -54.2633
LeftForeArm  1.1792 -19.6634 -5.84091
LeftHand  -0.119282 4.04169 9.31108
RightShoulder  -0.100094 -3.81566 23.2182
RightArm  8.98162 21.8501 55.9437
RightForeArm  -6.68838 12.3824 5.87641
RightHand  -0.595009 4.67165 -7.0267
LeftUpLeg  2.35553 6.47989 0.326759
LeftLeg  13.1601 -2.57496 -0.207007
LeftFoot  -12.6746 0.0783698 0.179908
LeftToes  -1.45701e-009 4.75788e-011 -4.21586e-011
1028
root  63.9379 38.8515 33.7746 177.287 -2.6005 176.745
RightUpLeg  -12.8377 -8.12665 -9.19224
RightLeg  4.56517 4.828 -1.24961
RightFoot  -8.66433 -0.296004 10.1673
RightToes  1.33877e-009 0 -3.6325e-017
Spine  6.99087 0.590846 -0.10831
Spine1  6.90745 1.78377 -5.11329
HEad  -3.40159 -8.93782 -0.336116
LeftShoulder1  0.447576 2.16611 -27.3281
LeftArm  10.996 -35.3433 -55.6361
LeftForeArm  3.44644 -24.9817 -5.01174
LeftHand  -0.102218 4.41899 10.5136
RightShoulder  -0.0181688 -3.54038 22.8203
RightArm  13.9482 25.6117 59.1157
RightForeArm  -5.77618 13.4835 6.41977
RightHand  -0.582958 5.83614 -6.33973
LeftUpLeg  1.13371 7.24132 0.555744
LeftLeg  13.7289 -2.08243 -0.611157
LeftFoot  -13.2356 0.0842876 0.290505
LeftToes  -1.45701e-009 4.75788e-011 -4.21586e-011
1029
root  63.5636 38.851 34.3271 176.521 -3.10334 176.122
RightUpLeg  -13.4585 -7.40979 -10.327
RightLeg  7.80693 6.97671 -0.445289
RightFoot  -9.42357 -0.234415 10.1156
RightToes  1.33877e-009 0 -3.6325e-017
Spine  8.17675 0.0024714 -0.0903216
Spine1  7.13893 1.28594 -5.56401
HEad  -3.39095 -5.49036 -2.70658
LeftShoulder1  0.372511 2.40047 -27.6144
LeftArm  7.78561 -34.6611 -55.2883
LeftForeArm  7.38888 -30.4609 -6.24515
LeftHand  -0.193882 3.45923 11.1403
RightShoulder  0.0537069 -3.29445 22.9716
RightArm  19.9224 28.5523 62.0162
RightForeArm  -2.66529 15.7599 6.41184
RightHand  -0.51213 5.74941 -5.63637
LeftUpLeg  1.03713 5.66189 -1.25787
LeftLeg  13.8453 -1.05942 0.0543841
LeftFoot  -13.511 0.0812433 0.0246753
LeftToes  -1.45701e-009 4.75788e-011 -4.21586e-011
1030
root  63.4709 38.8803 34.7741 176.037 -2.95484 176.531
RightUpLeg  -14.3399 -2.38468 -9.94346
RightLeg  13.1199 5.55172 0.650904
RightFoot  -10.2593 -0.158727 9.30284
RightToes  1.33877e-009 0 -3.6325e-017
Spine  8.71681 0.102832 -0.460512
Spine1  7.46205 1.18889 -4.89751
HEad  -3.33112 -1.72433 -4.74271
LeftShoulder1  0.456984 2.13868 -27.2791
LeftArm  6.38335 -32.5792 -55.0155
LeftForeArm  11.1143 -35.2177 -7.27187
LeftHand  -0.186912 3.85812 13.3177
RightShoulder  0.0425321 -3.33386 23.3753
RightArm  25.1094 29.5168 64.9056
RightForeArm  1.71293 18.888 5.50542
RightHand  -0.326868 5.70301 -3.74521
LeftUpLeg  0.458352 5.36335 -1.20573
LeftLeg  14.7221 -0.370384 0.447722
LeftFoot  -14.2749 0.0636197 -0.853698
LeftToes  -1.45701e-009 4.75788e-011 -4.21586e-011
1031
root  63.3747 38.8938 35.0595 176.167 -3.23721 176.704
RightUpLeg  -14.8412 1.82503 -9.27527
RightLeg  17.9933 4.96433 1.69107
RightFoot  -11.5374 -0.0605612 9.07676
RightToes  1.33877e-009 0 -3.6325e-017
Spine  8.13401 0.0874734 -0.580413
Spine1  7.97676 1.11916 -4.80823
HEad  -3.17867 1.97881 -5.62266
LeftShoulder1  0.319409 2.54312 -27.123
LeftArm  6.96557 -29.9097 -54.9141
LeftForeArm  12.5616 -38.5914 -8.15762
LeftHand  -0.365978 2.43716 14.1816
RightShoulder  0.0494922 -3.31411 23.8901
RightArm  28.239 28.462 66.7599
RightForeArm  5.44661 22.5819 4.75448
RightHand  -0.364239 5.9017 -4.06661
LeftUpLeg  -0.0696785 5.78359 -1.01617
LeftLeg  14.7423 -0.825643 0.159935
LeftFoot  -15.1666 0.0214649 -2.05705
LeftToes  -1.45701e-009 4.75788e-011 -4.21586e-011
